<svg width="24" height="24" viewBox="0 0 24 24" fill="none" xmlns="http://www.w3.org/2000/svg">
<circle cx="12" cy="12" r="11.6406" fill="#EB5757" stroke="#EB5757" stroke-width="0.71875"/>
<path d="M12.1026 14.0933C12.0093 14.0933 11.9301 14.0606 11.8648 13.9954C11.7995 13.9208 11.7622 13.8229 11.7529 13.7017L11.4172 7.36599C11.3986 7.15154 11.4545 6.9837 11.5851 6.86249C11.7156 6.73196 11.8881 6.66669 12.1026 6.66669C12.317 6.66669 12.4895 6.73196 12.62 6.86249C12.7506 6.9837 12.8065 7.15154 12.7879 7.36599L12.4522 13.7017C12.4429 13.8322 12.4056 13.9301 12.3403 13.9954C12.2751 14.0606 12.1958 14.0933 12.1026 14.0933ZM12.1165 16.6667C11.8928 16.6667 11.7063 16.5968 11.5571 16.4569C11.4079 16.3077 11.3333 16.1166 11.3333 15.8835C11.3333 15.6504 11.4079 15.4592 11.5571 15.31C11.7063 15.1609 11.8928 15.0863 12.1165 15.0863C12.331 15.0863 12.5082 15.1609 12.648 15.31C12.7972 15.4592 12.8718 15.6504 12.8718 15.8835C12.8718 16.1166 12.7972 16.3077 12.648 16.4569C12.5082 16.5968 12.331 16.6667 12.1165 16.6667Z" fill="white"/>
</svg>
