<svg width="24" height="24" viewBox="0 0 24 24" fill="none" xmlns="http://www.w3.org/2000/svg">
<circle cx="12" cy="12" r="11.6406" fill="#568793" stroke="#568793" stroke-width="0.71875"/>
<g clip-path="url(#clip0_1_890)">
<path d="M6.01582 10.6011L6.95168 10.4423C7.04917 10.1276 7.1745 9.82396 7.3277 9.53429L6.77621 8.76276C6.54224 8.43409 6.57845 7.98566 6.86534 7.70156L7.69536 6.87154C7.85133 6.71556 8.05745 6.62922 8.27748 6.62922C8.45017 6.62922 8.61451 6.68214 8.75377 6.78241L9.52809 7.3339C9.8289 7.17513 10.1436 7.04423 10.4695 6.94674L10.6255 6.02202C10.6923 5.62372 11.0349 5.33405 11.4388 5.33405H12.6114C13.0153 5.33405 13.3579 5.62372 13.4247 6.02202L13.5863 6.96902C13.8982 7.06651 14.2018 7.19463 14.4915 7.35061L15.2575 6.79912C15.3967 6.69885 15.5638 6.64593 15.7365 6.64593C15.9566 6.64593 16.1655 6.73227 16.3187 6.88825L17.1515 7.71827C17.4356 8.00237 17.4746 8.4508 17.2406 8.77947L16.6835 9.56214C16.8367 9.8546 16.9593 10.1582 17.054 10.4729L17.9787 10.6289C18.377 10.6958 18.6667 11.0384 18.6667 11.4422V12.6148C18.6667 13.0187 18.377 13.3613 17.9787 13.4281L17.0317 13.5897C16.9342 13.9016 16.8061 14.2052 16.6501 14.4949L17.1988 15.2581C17.4328 15.5868 17.3966 16.0352 17.1097 16.3193L16.2797 17.1493C16.1237 17.3053 15.9176 17.3916 15.6975 17.3916C15.5248 17.3916 15.3605 17.3387 15.2212 17.2384L14.4386 16.6814C14.1573 16.829 13.862 16.9488 13.5584 17.0435L13.4024 17.9793C13.3356 18.3776 12.993 18.6673 12.5891 18.6673H11.4137C11.0099 18.6673 10.6673 18.3776 10.6004 17.9793L10.4417 17.0435C10.1269 16.946 9.82333 16.8206 9.53366 16.6674L8.76213 17.2189C8.62286 17.3192 8.45574 17.3721 8.28306 17.3721C8.06302 17.3721 7.8569 17.2858 7.70093 17.1298L6.87091 16.2998C6.58681 16.0157 6.54781 15.5673 6.78178 15.2386L7.33327 14.4643C7.18008 14.1718 7.05195 13.8682 6.95725 13.5563L6.02139 13.4003C5.62309 13.3334 5.33342 12.9908 5.33342 12.587V11.4144C5.32785 11.0105 5.61752 10.6679 6.01582 10.6011ZM6.07988 12.587C6.07988 12.6232 6.10495 12.6538 6.14116 12.6594L7.31098 12.8544C7.4586 12.8794 7.57559 12.9881 7.6118 13.1301C7.71764 13.5396 7.87919 13.9323 8.09644 14.2972C8.17164 14.4253 8.16607 14.584 8.07973 14.7066L7.39176 15.6759C7.37226 15.7037 7.37505 15.7455 7.40011 15.7706L8.23013 16.6006C8.24963 16.6201 8.26913 16.6229 8.28306 16.6229C8.29977 16.6229 8.31369 16.6173 8.32483 16.609L9.29134 15.921C9.4111 15.8346 9.57265 15.8291 9.70078 15.9043C10.0656 16.1215 10.4584 16.2831 10.8678 16.3889C11.0127 16.4251 11.1213 16.5449 11.1436 16.6897L11.3413 17.8596C11.3469 17.8958 11.3775 17.9208 11.4137 17.9208H12.5863C12.6226 17.9208 12.6532 17.8958 12.6588 17.8596L12.8537 16.6897C12.8788 16.5421 12.9874 16.4251 13.1295 16.3889C13.5278 16.2859 13.9122 16.1271 14.2715 15.921C14.3299 15.8876 14.3968 15.8709 14.4609 15.8709C14.5361 15.8709 14.6141 15.8931 14.6781 15.9405L15.653 16.634C15.6669 16.6424 15.6808 16.648 15.6947 16.648C15.7059 16.648 15.7282 16.6452 15.7477 16.6257L16.5777 15.7956C16.6028 15.7706 16.6055 15.7316 16.586 15.7009L15.9009 14.74C15.8145 14.6175 15.8089 14.4559 15.8841 14.3278C16.1014 13.9657 16.2685 13.573 16.3744 13.1635C16.4134 13.0215 16.5303 12.9129 16.6752 12.8878L17.8534 12.6872C17.8896 12.6817 17.9146 12.651 17.9146 12.6148V11.4422C17.9146 11.406 17.8896 11.3754 17.8534 11.3698L16.6919 11.1748C16.5443 11.1498 16.4245 11.0411 16.3883 10.8963C16.2852 10.4869 16.1265 10.0913 15.912 9.72647C15.8368 9.59835 15.8452 9.43959 15.9315 9.31982L16.625 8.34496C16.6445 8.31711 16.6418 8.27533 16.6167 8.25026L15.7867 7.42024C15.7672 7.40074 15.7477 7.39796 15.7337 7.39796C15.717 7.39796 15.7031 7.40353 15.692 7.41189L14.731 8.09707C14.6085 8.18341 14.4469 8.18899 14.3188 8.11378C13.9567 7.89653 13.564 7.72941 13.1546 7.62357C13.0125 7.58457 12.9039 7.46759 12.8788 7.32276L12.6783 6.14457C12.6727 6.10836 12.6421 6.0833 12.6058 6.0833H11.4332C11.397 6.0833 11.3664 6.10836 11.3608 6.14457L11.1658 7.30604C11.1408 7.45367 11.0322 7.57343 10.8873 7.60964C10.4667 7.71548 10.0656 7.87982 9.69242 8.09986C9.56429 8.17506 9.40553 8.16949 9.28298 8.08314L8.32205 7.39239C8.30812 7.38403 8.2942 7.37846 8.28027 7.37846C8.26913 7.37846 8.24685 7.38125 8.22735 7.40074L7.39733 8.23076C7.37226 8.25583 7.36948 8.29483 7.38897 8.32546L8.07694 9.29197C8.16329 9.41173 8.16886 9.57328 8.09365 9.7014C7.8764 10.0663 7.71485 10.459 7.60901 10.8684C7.5728 11.0133 7.45304 11.1219 7.3082 11.1442L6.13837 11.3419C6.10216 11.3475 6.0771 11.3782 6.0771 11.4144V12.587H6.07988Z" fill="white" stroke="white" stroke-width="0.0931713"/>
<path d="M11.9986 9.12136C13.5863 9.12136 14.8759 10.411 14.8759 11.9986C14.8759 13.5862 13.5863 14.8758 11.9986 14.8758C10.411 14.8758 9.12142 13.5862 9.12142 11.9986C9.12142 10.411 10.411 9.12136 11.9986 9.12136ZM11.9986 14.1238C13.1712 14.1238 14.1238 13.1712 14.1238 11.9986C14.1238 10.826 13.1712 9.87339 11.9986 9.87339C10.826 9.87339 9.87345 10.826 9.87345 11.9986C9.87345 13.1712 10.826 14.1238 11.9986 14.1238Z" fill="white" stroke="white" stroke-width="0.0931713"/>
</g>
<defs>
<clipPath id="clip0_1_890">
<rect width="13.3333" height="13.3333" fill="white" transform="matrix(-1 0 0 1 18.6667 5.33333)"/>
</clipPath>
</defs>
</svg>
