<svg width="24" height="24" viewBox="0 0 24 24" fill="none" xmlns="http://www.w3.org/2000/svg">
<circle cx="12" cy="12" r="11.6406" fill="#568793" stroke="#568793" stroke-width="0.71875"/>
<path d="M11.9467 16.7224C11.8073 16.7224 11.7004 16.6806 11.6261 16.597C11.5517 16.5133 11.5146 16.4018 11.5146 16.2624V10.2955C11.5146 10.1468 11.5517 10.0353 11.6261 9.96092C11.7004 9.88657 11.8073 9.84939 11.9467 9.84939C12.0769 9.84939 12.1791 9.88657 12.2535 9.96092C12.3278 10.0353 12.365 10.1468 12.365 10.2955V16.2624C12.365 16.4018 12.3278 16.5133 12.2535 16.597C12.1884 16.6806 12.0862 16.7224 11.9467 16.7224ZM11.9467 8.1625C11.7516 8.1625 11.5982 8.11138 11.4867 8.00914C11.3844 7.90691 11.3333 7.76285 11.3333 7.57696C11.3333 7.39108 11.3844 7.25167 11.4867 7.15872C11.5982 7.05649 11.7516 7.00537 11.9467 7.00537C12.1419 7.00537 12.2906 7.05649 12.3929 7.15872C12.5044 7.25167 12.5602 7.39108 12.5602 7.57696C12.5602 7.76285 12.5044 7.90691 12.3929 8.00914C12.2906 8.11138 12.1419 8.1625 11.9467 8.1625Z" fill="white"/>
</svg>
